# xmcd CD database file
#
# Track frame offsets:
#	182
#	12255
#	26515
#	40142
#	51360
#	63235
#	77222
#	90572
#	103527
#	119280
#	131922
#	145050
#	157222
#	168085
#	178282
#	190660
#	203895
#	217987
#	230835
#	242290
#	254430
#
# Disc length: 3520 seconds
#
# Revision: 0
# Processed by: cddbd v1.4PL0 Copyright (c) Steve Scherf et al.
# Submitted via: CDex 1.50
#
DISCID=240dbe15
DTITLE=Various Artist - Trouble In The Morning: Chicago Blues Of The Fifties
DYEAR=1992
DGENRE=Blues
TTITLE0=John Brim - I Love My Baby
TTITLE1=Grace Brim - Man Around My Door
TTITLE2=John Brim - Humming Blues
TTITLE3=Grace Brim - Hospitality Blues
TTITLE4=Moody Jones - Why Should I Worry
TTITLE5=Sunnyland Slim - Highway 61
TTITLE6=John Brim - Don't Leave Me
TTITLE7=John Brim - Moonlight Blues
TTITLE8=Magic Sam - Easy Baby (Take 5)
TTITLE9=Morris Pejoe - Screaming And Crying
TTITLE10=Morris Pejoe - Maybe Blues
TTITLE11=Lee Jackson - Fishin' In My Pond
TTITLE12=Lee Jackson - I'll Just Keep Walking
TTITLE13=Guitar Shorty - You Don't Treat Me Right
TTITLE14=John Brim - Hard Pill To Swallow
TTITLE15=John Brim - Drinking Woman
TTITLE16=John Brim - Young And Wild
TTITLE17=John Brim - Trouble In The Morning
TTITLE18=Clarence Jolly - Changing Love
TTITLE19=Lillian Offitt - Will My Man Be Home Tonight
TTITLE20=Guitar Shorty - Irma Lee
EXTD=YEAR: 1992
EXTT0=
EXTT1=
EXTT2=
EXTT3=
EXTT4=
EXTT5=
EXTT6=
EXTT7=
EXTT8=
EXTT9=
EXTT10=
EXTT11=
EXTT12=
EXTT13=
EXTT14=
EXTT15=
EXTT16=
EXTT17=
EXTT18=
EXTT19=
EXTT20=
PLAYORDER=
